<svg xmlns="http://www.w3.org/2000/svg" viewBox="0 0 826.5 313.2"><defs><style>.cls-1,.cls-2{fill:#583b29;stroke:#64821f;stroke-miterlimit:10;}.cls-1{stroke-width:2px;}.cls-2{stroke-width:3px;}.cls-3{font-size:18px;}.cls-3,.cls-4,.cls-5,.cls-6,.cls-7{fill:#fff;font-family:Minecraft;}.cls-4{font-size:10.45px;}.cls-5{font-size:15px;}.cls-6{font-size:8.5px;}.cls-7{font-size:17.01px;}</style></defs><g id="Calque_3" data-name="Calque 3"><line class="cls-1" x1="413.2" y1="45.9" x2="413.2" y2="138.2"/><line class="cls-1" x1="184.4" y1="158" x2="184.4" y2="210.9"/><line class="cls-1" x1="136.8" y1="158" x2="136.8" y2="210.9"/><line class="cls-1" x1="665.8" y1="158" x2="665.8" y2="269.7"/><line class="cls-1" x1="628.5" y1="156.5" x2="628.5" y2="213.8"/><line class="cls-1" x1="703.5" y1="156.5" x2="703.5" y2="213.8"/><line class="cls-1" x1="219" y1="137.1" x2="270.8" y2="137.1"/><line class="cls-1" x1="387.4" y1="137.6" x2="439.1" y2="137.6"/><line class="cls-1" x1="555.2" y1="136.8" x2="606.9" y2="136.8"/><rect class="cls-2" x="321" y="1.5" width="184.5" height="51.3" rx="15.9"/><rect class="cls-2" x="254" y="116.2" width="150.1" height="41.74" rx="15.9"/><rect class="cls-2" x="85.7" y="116.2" width="150.1" height="41.74" rx="15.9"/><rect class="cls-2" x="590.7" y="116.2" width="150.1" height="41.74" rx="15.9"/><rect class="cls-2" x="422.4" y="116.2" width="150.1" height="41.74" rx="15.9"/><rect class="cls-2" x="169.9" y="210.9" width="150.1" height="41.74" rx="15.9"/><rect class="cls-2" x="1.5" y="210.9" width="150.1" height="41.74" rx="15.9"/><rect class="cls-2" x="674.9" y="211.5" width="150.1" height="41.74" rx="15.9"/><rect class="cls-2" x="590.7" y="270" width="150.1" height="41.74" rx="15.9"/><rect class="cls-2" x="506.6" y="211.5" width="150.1" height="41.74" rx="15.9"/><text class="cls-3" transform="translate(351.4 26.9)">David Robillard</text><text class="cls-4" transform="translate(383.5 42.9)">DIRIGEANT</text><text class="cls-5" transform="translate(277 137)">Tony Chausson</text><text class="cls-6" transform="translate(274.3 150)">commercial en alternance</text><text class="cls-7" transform="translate(117.1 137.8)">Laura Gate</text><text class="cls-6" transform="translate(131.5 150)">resp.com &amp; rh</text><text class="cls-7" transform="translate(625.4 137.8)">O.Lapierre</text><text class="cls-6" transform="translate(622.7 150)">ingenieur integrateur</text><text class="cls-7" transform="translate(457 137.8)">G.Voissiere</text><text class="cls-6" transform="translate(461.3 150)">Dev.Web en stage</text><text class="cls-7" transform="translate(208.2 232.5)">J.Gustave</text><text class="cls-6" transform="translate(185.9 244.7)">Assistant de gestion en stage</text><text class="cls-7" transform="translate(40.9 232.5)">C.Trolong</text><text class="cls-6" transform="translate(13.8 244.7)"><tspan xml:space="preserve">Assistante  com en alternance</tspan></text><text class="cls-7" transform="translate(718 233)">F.Gomez</text><text class="cls-6" transform="translate(728.2 245.2)">Electricien</text><text class="cls-5" transform="translate(627.7 290.8)">Nicolas Aux</text><text class="cls-6" transform="translate(644 303.7)">Electricien</text><text class="cls-7" transform="translate(553.4 233)">A.Pardo</text><text class="cls-6" transform="translate(559.8 245.2)">Electricien</text></g></svg>