<svg id="Calque_1" data-name="Calque 1" xmlns="http://www.w3.org/2000/svg" viewBox="0 0 52.3 100"><defs><style>.cls-1{fill:#555;}</style></defs><rect class="cls-1" y="88.5" width="11.4" height="11.51"/><rect class="cls-1" y="78.4" width="11.4" height="11.51"/><rect class="cls-1" y="68.3" width="11.4" height="11.51"/><rect class="cls-1" y="58.2" width="11.4" height="11.51"/><rect class="cls-1" y="48.1" width="11.4" height="11.51"/><rect class="cls-1" y="40.8" width="11.4" height="11.51"/><rect class="cls-1" y="30.3" width="11.4" height="11.51"/><rect class="cls-1" y="20.2" width="11.4" height="11.51"/><rect class="cls-1" y="10.1" width="11.4" height="11.51"/><rect class="cls-1" x="10" y="78.4" width="11.4" height="11.51"/><rect class="cls-1" x="10" y="68.3" width="11.4" height="11.51"/><rect class="cls-1" x="10" y="58.2" width="11.4" height="11.51"/><rect class="cls-1" x="10" y="48.1" width="11.4" height="11.51"/><rect class="cls-1" x="10" y="40.8" width="11.4" height="11.51"/><rect class="cls-1" x="10" y="30.3" width="11.4" height="11.51"/><rect class="cls-1" x="10" y="20.2" width="11.4" height="11.51"/><rect class="cls-1" x="20" y="68.3" width="11.4" height="11.51"/><rect class="cls-1" x="20" y="58.2" width="11.4" height="11.51"/><rect class="cls-1" x="20" y="48.1" width="11.4" height="11.51"/><rect class="cls-1" x="20" y="40.8" width="11.4" height="11.51"/><rect class="cls-1" x="20" y="30.3" width="11.4" height="11.51"/><rect class="cls-1" x="30" y="55.4" width="11.4" height="11.51"/><rect class="cls-1" x="30" y="46.7" width="11.4" height="11.51"/><rect class="cls-1" x="30" y="42.2" width="11.4" height="11.51"/><rect class="cls-1" x="40.9" y="46.7" width="11.4" height="11.51"/><rect class="cls-1" x="40.9" y="42.2" width="11.4" height="11.51"/><rect class="cls-1" x="30" y="33.1" width="11.4" height="11.51"/><rect class="cls-1" x="20" y="20.2" width="11.4" height="11.51"/><rect class="cls-1" x="10" y="10.1" width="11.4" height="11.51"/><rect class="cls-1" width="11.4" height="11.51"/></svg>